# xmcd
#
# Track frame offsets:
# 150
# 28891
# 59637
# 84912
# 115508
# 173220
# 215959
# 250562
# 272820
# 310101
#
# Disc length: 4589 seconds
#
#
# Revision: 0
# Processed by: cddbd v1.5.2PL0 Copyright (c) Steve Scherf et al.
# Submitted via: FreeRIP 2.945 
#
DISCID=8911eb0a
DTITLE=Herriot-J1977 - Wise-Wonderful06
DYEAR=1977
DGENRE=Jungle
TTITLE0=WW 0601
TTITLE1=WW 0602
TTITLE2=WW 0603
TTITLE3=WW 0604
TTITLE4=WW 0605
TTITLE5=WW 0606
TTITLE6=WW 0607
TTITLE7=WW 0608
TTITLE8=WW 0609
TTITLE9=WW 0610
EXTD=All Things Wise and Wonderful 12 CDs\nby James Herriot - read by Christopher Timothy\nRennasance Audio - Jungle Country
EXTT0=
EXTT1=
EXTT2=
EXTT3=
EXTT4=
EXTT5=
EXTT6=
EXTT7=
EXTT8=
EXTT9=
PLAYORDER=
